<?xml version="1.0" encoding="UTF-8"?>
<svg version="1.1" viewBox="0 0 1564 1124" width="391" height="281" xmlns="http://www.w3.org/2000/svg">
<path transform="translate(623,69)" d="m0 0 20 1 13 4 11 7 8 6h11l19-5 23-5 29-4 14-1h42l25 2 26 4 37 9 12 2 11-7 10-7 12-4 7-1h17l10 2 10 6 9 8 10 13 11 18 11 21 16 36 10 22 13 30 8 21 5 19 1 14-5 21-8 17-8 12-18 22-11 14-9 14-14 25-10 13-10 9-14 8-12 6-7 7-11 14-11 13-7 8-11 12-17 17-11 9-9 9 2 2h8l8-4 13-11 20-14 17-10 16-8 16-6 9-3 19-1 6 2 4 8 17 81 7 31 5 13 9 20 10 30 5 26v33l-3 18v5l10 3 20 4 33 11 16 8 17 10 19 14 13 11 11 10 7 8 10 11 12 16 10 17 12 23 11 30 6 21 4 20 2 20 5-3 5-5 5-10 6-18 3-16v-13l-4-25-7-19-10-21-8-16-6-15-5-16-2-6-4-27v-9l2-13 3-11 7-13 9-10 7-6 14-8 9-4 10-3h9l8 4 4 5 2 4-1 9-6 8-8 5-14 7-5 4-5 8-2 7-1 11 3 18 8 24 12 26 13 27 7 21 4 18 3 20v17l-2 15-6 27-6 16-8 15-11 14-5 6-11 9-14 10-17 11-3 1-2 6-13 29v4l4 1h84l7 4 1 4-3 5-2 1-47 1h-37l-9-1-931-1h-80l-26 2h-38l-28-2-4-1-2-3-4-2 4-2 4-4 90-1 6-1-2-6-2-4-20-13-20-12-13-9-16-16-12-17-12-21-10-22-8-26-4-22v-50l5-27 5-17 12-31 11-24 11-23 8-16 7-16 8-28 1-12v-24l-2-10-5-10-8-8-11-7-20-8-8-6-4-6-1-9 4-9 5-5 10-4h9l16 5 23 11 15 10 9 8 9 12 8 16 6 20 1 6v19l-5 26-7 26-9 24-9 21-16 32-9 19-7 21-4 21-2 21v13l2 17 5 21 7 21 5 5 4 3 1-41 4-23 8-31 9-26 8-20 12-22 14-23 11-16 12-16 13-17 11-13 7-8 14-15 20-20 11-9 15-13 11-8 19-14 16-11 17-12 16-11 17-12 14-10 16-11 18-13 12-9 13-11 10-9 11-9 19-19 9-11 8-10 8-13 8-16 4-10v-8l-16-9-10-9-8-9-13-21-10-16-14-19-10-12-12-16-8-13-7-14-3-9v-30l5-18 8-18 5-10 8-20 15-35 11-24 12-22 6-10 10-14 14-14 9-5z" fill="#351E3C"/>
<path transform="translate(611,492)" d="m0 0 5 5 11 14 15 16 16 15 14 11 18 13 9 6v2l-21 2-30 8-16 7-3 1 1 7 11 31 12 36 14 40 2 18 3 29 4 21 7 19 6 11 9 12 7 7 14 10 3 1 1 4-4 37-2 34v68l2 32 5 36 3 12h16l15 2 12 4 9 5 9 8 7 14 1 8-1 1h-143l-3-15-8-54-9-69-5-46-3-36-1-17-1-76-1-1h-8l-1 33v16l1 36 3 46 5 53 4 32 7 50 7 44-1 4h-55l-6-21-7-13-9-10-14-8-16-5-14-2h-21l-4 1 1-2h2l2-4 9-10 13-17 6-8 11-18 9-20 6-15 5-21 1-8v-23l-3-15-6-16-7-13-8-10-7-7-14-9-15-6-13-2h-29l-25 6-17 7-14 8-12 9-10 8-11 10-8 10h-2l-2 4-2 6 4 5 5-2 11-11h2l1-3 6-5h2l1-3 14-10 10-7 12-7 21-8 17-4h30l15 5 12 7 12 11 7 10 5 11 4 16 1 5v25l-4 20-6 18-8 16-10 16-8 11-11 14-9 10-16 16-8 7-2 4 1 6 4 2 16-4 12-2h24l15 3 13 5 6 4 5 4 8 13 4 12v3l-7 1h-297l-6-7-14-21-8-14-8-19-5-15-4-16-4-31v-30l4-29 9-36 10-25 12-25 9-17 13-21 13-18 10-13 12-14 9-11 10-10 7-8 12-12 8-7 7-7 11-9 16-13 9-7 18-13 22-15 10-7 15-10 50-35 18-13 13-11 10-8 14-12 25-25 9-11z" fill="#EDB241"/>
<path transform="translate(625,82)" d="m0 0h11l12 3 10 6 10 9 4 4 9-1 27-7 41-8 36-3h16l31 2 31 5 30 7 19 5 4 1 5-3 8-8 10-7 10-4h20l12 5 5 4 9 11 9 14 12 22 12 26 13 30 17 37 7 17 3 11 1 8v13l-3 15-5 12-11 17-9 11-14 17-12 17-13 24-8 12-8 10-10 8-2-1 7-20 5-18 3-20v-46l-3-29-9-68-2-14-2-4-5 1-1 1v18l8 68 2 23v45l-3 19-6 21-9 21-11 18-10 13-11 14-9 11-15 16-13 12-11 9-15 10-16 8-16 6-20 4-8 1h-16l-22-3-17-5-17-8-17-11-13-10-13-12-12-12-9-11-9-10-13-18-13-20-8-14-6-16-5-24-1-9v-45l5-49 4-36 1-24-7-1-7 60-3 22-4 40v34l2 20 5 22 6 17v2l-5-2-12-12-9-14-13-24-11-16-9-11-9-9-9-12-9-16-5-14-2-11v-14l4-17 10-24 13-29 24-54 12-24 10-15 11-12 9-7z" fill="#EDB241"/>
<path transform="translate(1062,755)" d="m0 0 22 3 21 5 19 7 16 8 22 13 12 9 10 9 8 7 6 7 8 7 11 13 11 15 13 21 10 22 9 25 5 21 2 15 1 29-1 17-4 22-6 21-8 20-12 26-3 3h-134l-11-2-14-8-11-9-10-9-8-8-7-10-8-16-4-14-1-5v-27l4-16 8-16 8-11 11-11 10-6 15-7 16-4 7-1 21 1 18 4 20 7 4 1 1-5-17-9-21-7-11-2h-23l-20 4-14 6-15 10-11 10-10 15-7 14-5 16-2 14v15l4 20 6 16 7 13 9 12 5 5v2l4 2 7 7 8 6v2l-28 1h-21l-16-1-1-1v-107l-1-22-3-6-5 1-1 2-1 73-2 58-1 2-45 1h-9l-11-2 2-5 9-10 10-4h7l12 3 13 6 5 1-2-8-8-6-12-5-7-2-11-1-2-65-3-42-4-34-1-3h-7v13l2 22 1 20 1 36v56l-5 5-8 11-7 13h-16l-1-2-4-79-4-54-2-13-1-3-8 1 1 20 3 46 2 60v23l-1 1-22 1h-16l-24-1-4-19 4-5 9-4h11l10 4 10 6 5 4 5-1-1-6-6-8-10-7-14-5h-13l-1-1-6-51-2-20-1-1-9-64-4-34v-6l8 1 20 4 40 4 1 17 3 10 7 9 4 2 9 1 7-2 3-1 2-4 6-10 2-7v-7l-2-12 8-3 26-8 15-6 17-9 15-10 10-9 11-11 10-13 7-11 8-15 15-14 8-9 8-12z" fill="#FBFBF9"/>
<path transform="translate(999,489)" d="m0 0h7l11 48 11 51 5 23 13 25 7 18 5 19 2 15v27l-3 16-6 16-9 14-9 10-12 11-16 11-15 9-23 11-30 11-36 10-27 5-29 3-17 1h-19l-25-2-23-5-20-7-16-8-10-8-9-8-9-12-7-15-5-19-3-22-1-26-5-18-15-42-15-43-1-9 12-5 15-4 27-4 25-1 29 1 10-5 15-10 16-8 16-6 21-6 18-3 11-1h39l12-12 8-7 18-13 15-9 17-8 21-7z" fill="#FBFBF8"/>
<path transform="translate(436,367)" d="m0 0h14l12 2 11 5 10 7 12 12 6 10 5 16 1 6v11l-4 17-6 12-8 11-9 9-7 8-29 29-8 7-6 7h-2l-2 4-12 9-7 3h-22l-11-7-39-39v-2l-3-1-7-8-21-21-9-13-4-8-3-8v-29l4-12 9-14 10-10 13-8 11-4h32l16 8 14 9 9-6 10-7 10-4z" fill="#311C3B"/>
<path transform="translate(1130,570)" d="m0 0h9l15 3 12 7 6 4 8-6 11-6 10-2 16 1 10 3 9 6 5 5 7 8 5 11 3 9v14l-5 13-6 9-9 10-30 30-7 8-9 10-8 5-6 1h-10l-6-2-10-7-12-12-7-8-30-30-9-13-4-10v-23l5-13 9-12h2l1-3 10-6 9-3z" fill="#301C3B"/>
<path transform="translate(780,346)" d="m0 0h29l19 3 9 4 5 6 2 5v13l-4 11-8 10-14 9-5 2-10 1 1 29 12 6 20 3 16-1 12-2 12-6 13-10 15-20 5 2 1 1v8l-9 14-8 9-12 9-11 5-7 3-4 16-7 14h-2l-2 4-7 9-14 9-11 5-12 3h-17l-16-4-15-8-10-9-8-11-5-10-6-18-11-5-11-6-12-11-7-8-6-12 1-6 4-3 4 2 5 9 11 12 8 6 15 7 14 3h16l14-2 10-4 5-3 1-5v-24h-8l-12-5-9-7-6-7-5-10-1-4v-14l3-6 7-6 8-3z" fill="#341C3B"/>
<path transform="translate(153,594)" d="m0 0h7l15 5 16 8 13 8 10 9 9 13 6 13 4 20v19l-4 26-9 30-11 27-16 33-9 19-8 22-5 18-4 24v29l4 24 6 19 7 16 11 18 5 6v2h2l6 9 12 36 6 14-1 4-15-9-13-10-13-12-9-10-10-14-8-14-10-25-6-22-3-21v-41l4-26 7-27 8-21 8-19 10-19 8-16 9-21 8-22 6-26 1-9v-17l-4-15-7-13-7-8-14-9-14-6-10-4-4-5v-5z" fill="#EDB241"/>
<path transform="translate(736,842)" d="m0 0 6 2 14 5 20 4 2 4 7 68 8 61 6 45 2 18v18l-5-2-10-8-10-6-11-4-17-3h-9l-2-1-4-29-3-29v-73l2-34z" fill="#EDB241"/>
<path transform="translate(1325,705)" d="m0 0h6l1 1v6l-10 5-11 5-9 6-7 8-4 8-2 8v21l4 17 10 27 8 18 10 19 8 17 5 15 3 14 2 24v10l-2 19-4 17-6 15-10 18-8 10-12 13-17 12-5 2-1-3 6-34 3-5 8-7 8-9 9-17 7-21 3-23v-12l-3-19-5-16-10-23-8-16-11-25-7-24-1-7v-25l3-11 5-10 11-12 14-9z" fill="#F5F5ED"/>
<path transform="translate(632,449)" d="m0 0h3l9 13 10 13 13 15 23 23 10 8 18 12 13 8 20 8 15 4 11 2-3 3-22 14-6 1-21-1-20-12-20-14-18-14-12-11-12-12-9-11-10-11-4-6 1-6 10-22z" fill="#6CAFAB"/>
<path transform="translate(623,69)" d="m0 0 20 1 13 4 11 7 8 6h11l19-5 23-5 29-4 14-1h42l25 2 26 4 37 9 12 2 11-7 10-7 12-4 7-1h17l10 2 10 6 9 8 10 13-1 2-4-3-3-5-6-7-5-4-14-7-6 1-7-1-16 1v6l9-1 8 1v1l-15 1-10 4-11 8-9 9-4 1-14-4-28-7-34-6-18-2-20-1h-16l-36 3-32 6-40 10h-5l-11-11-11-7-9-3 4-2 6 1 4 1v2l4 1v2l4 2 2 2 2 1 1 3 2 1v2l3-1v2l3 1 5-2 2-2-4-2v-2l-6-1v-2l-10-8-2-2-5-2-9-4h-20l-8 1h-4l-1 5-5 3-1 3h-2v-2h-4-2l-2 4h-2l-2 4-4-1v2l-6 3 2-5 16-16 9-5z" fill="#37203C"/>
<path transform="translate(852,693)" d="m0 0 9 2 3 5 1 8-4 10-7 6 1 7 2 1 15-1 11-4 5-5 7-9 4-1 3 2v7l-6 10-5 5-1 17-4 11-4 6-8 7-7 3-8 1-14-3-8-6-8-9-5-9v-2l-7-1-5-5 1-5 2-2h7l11 1 7-4-1-7-1-1-9-1-8-6-3-5v-9l3-5 8-5 12-3z" fill="#2F1B3A"/>
<path transform="translate(793,452)" d="m0 0 7 1 11 5 12 3 26 2-3 9-5 10-7 9-10 8-12 6-13 3-13-1-13-4-6-3-12-11-7-10-4-10v-6l23-2 16-4z" fill="#B43057"/>
<path transform="translate(1e3 811)" d="m0 0 2 1-9 12h-2l-2 4-11 9-14 10-16 9-19 8-21 6-10 2h-9l-2-1h-7l-11 4h-28l-33-5-14-4-2-2v-8h37l20-1 34-4 29-6 30-9 25-9 16-7 16-8z" fill="#6CAFAB"/>
<path transform="translate(615,784)" d="m0 0h6l2 2 1 76 3 42 5 49 8 62 8 57 1 9-3-1-2-9 1-4-2-10-2-7-1-12-1-10-2-5-4-1v-6h-2l-1 2-1-20 1-2-4-2-1 7h-1l-5-41-5-55-2-35-1-36v-16l1-27 1-6z" fill="#421E3E"/>
<path transform="translate(455,816)" d="m0 0h29l13 2 19 8 12 9 9 9 9 14 6 13-2 1-3-7-4-3-2-5-3-7-8-7-6-4 2 3-4-1-5-3-3-3-2-1 2 5h2l3 6-4-2-14-8-13-4h-30l-17 4-21 8-17 10-17 13-8 7-10 9-8 8-4 1-5-6 2-6 3-4h2l2-4 11-12 8-7 17-13 17-10 17-7z" fill="#3A1D3D"/>
<path transform="translate(512,834)" d="m0 0 5 2v2l5 2h2l-1-2 5 2 8 8 3 2 3 7 1 5 3 1 2 2 2 7h2l5 16 1 7v23l-3 16-5 19-5 12-8 17-13 21-20 25h-4l-1-3 1-2h2l1-5 10-12 2-4h2l2-5 10-15 4-8h-2l-2 6-8 11-3 4-2-4 6-12 8-14 8-21 4-17 1-7v-25l-4-18-5-12-7-11-8-8-3-5v-2h-2z" fill="#21112B"/>
<path transform="translate(695,605)" d="m0 0h31l3 3-1 7-7 10-11 19-11 21-3 2-5-3-5-10-14-37-1-8 6-2z" fill="#2F1B3A"/>
<path transform="translate(987,521)" d="m0 0 5 1 2 7 8 48-2 5h-6l-21-13-17-9-14-6-1-6 9-8 15-9 19-9z" fill="#301C3B"/>
<path transform="translate(288,1100)" d="m0 0h239v1l39 1 2 2-4 1-1-1-2 2h-3l-13 1h-247v-2h-7v-2l-3-1z" fill="#1C0E28"/>
<path transform="translate(756,677)" d="m0 0h20l12 5 9 7 7 8 1 7-5 5-6-1-7-9-14-7-14-1-13 4-8 6-6 8-4 9-2 17-1 2-8 1-3-2-1-11 2-14 4-10 7-9 9-7 10-5z" fill="#2F1B3A"/>
<path transform="translate(685,263)" d="m0 0h11l16 4 9 5 7 6 9 14 3 8v5l-5 5-6-1-4-6-4-10-6-8-10-6-9-2-15 1-12 6-8 9-8 15h-6l-5-4 1-7 8-16 8-8 14-7z" fill="#3E1E3D"/>
<path transform="translate(894,263)" d="m0 0h11l16 4 10 6 9 9 8 16 1 6-5 6h-5l-4-5-8-16-9-8-11-4h-12l-11 3-6 4-9 10-7 14-7-1-4-2 1-9 7-14 10-10 12-6z" fill="#3B1D3D"/>
<path transform="translate(931,627)" d="m0 0h16l13 4 11 8 9 11 3 6v4l-6 4-5-1-10-13-5-4-9-4-12-1-13 3-10 6-5 6-5 10-4 16h-8l-3-3v-12l4-13 7-10 9-8 12-6z" fill="#301B3A"/>
<path transform="translate(618,204)" d="m0 0 6 2-1 24-6 53-3 32v45l3 20 3 17-1 5-2-2-4-13-4-18-2-16-2-5h2l-2-3v-39l2-19 6-39 1-7v-28l2-8z" fill="#2B1C2E"/>
<path transform="translate(733,841)" d="m0 0 3 1-1 16-3 34-1 20v73l3 29v19l-2 1-3-9-2-20-2-11-1-12-1-20v-39l1-21v-9l2-9 2-23 3-6v-11z" fill="#361C32"/>
<path transform="translate(519,845)" d="m0 0 4 2 5 3 5 6 2 8 3-1-2-5-1-2 4 1 3 4 5 14 4 11v15 2l1 4-1 17-3 14-2 5-2-1-1-2-2 10 3-6h1l-1 7-7 18-2 1v-6l-3 6-3 2-2 1-2 5-1-2 8-16 6-16 4-17 1-7v-25l-4-18-5-12-7-11-8-8z" fill="#371D3C"/>
<path transform="translate(664,1100)" d="m0 0h102v1l-11 1 8 1 2-1 27 2 3 3h-155v-1l10-1 2-3 11 1 2-1z" fill="#1C0E28"/>
<path transform="translate(625,993)" d="m0 0 5 3 1 20h2l1 6 4 1v4l2 1 2 22 2 7 2 12-1 3 4 14-1 5-3-1-2-12v-4l-2 1v8l1 8-1 2h-3l-6-36-7-49z" fill="#281B2D"/>
<path transform="translate(429,642)" d="m0 0h3v2l-10 6h-2v2l-8 5-4 4-4 2-4 8h-2l-2 4-9 3-4 7h-2v2l-4 3h-3v2l-9 2v2h-2v2h-2v2h-2v2h-2v2h-2l-2 5-3 1 1 3-4 2v2l-5 3-4 2-1 3h-2l-1 4-5 5-8 6-7 9-3 5h-2l-2 5-4 1-2 5-5 5-3 6h-2v4l-6 2 2-5 3-6 11-14 8-9 9-11 10-10 7-8 12-12 8-7 7-7 11-9 16-13 9-7 18-13z" fill="#F5BD49"/>
<path transform="translate(619,836)" d="m0 0 2 1 3 45 2 11 3 33 1 20v19h-1v-9l-3-1-2-9-1-12v-6l-2-1v-6l-1-4v-3l-1-16-2-21v-12l-1-1v-15h2l-1-5z" fill="#25122C"/>
<path transform="translate(89,1095)" d="m0 0 43 5 2 7-2 4-19 3-20 1z" fill="#37223C"/>
<path transform="translate(859,745)" d="m0 0h16l1 1v8l-4 8-5 4-9 2-9-2-5-4-3-6 1-5 6-4z" fill="#B43057"/>
<path transform="translate(627,74)" d="m0 0h20l12 6 4 1 5 5 6 5 3 2 2 1v2l5 1-4 5-5 1-3-2-2-1v-2l-3-1-2-3-6-5v-2l-7-2-4-2h-23l-10 3-4 1v-2l-3 1 1-3 5-2 1-5z" fill="#1D0E29"/>
<path transform="translate(597,102)" d="m0 0 2 1-6 9v3l-3 11-4 9h-2v4l-5-1 2 3-7 14-4 9-4 12-2 4-2 7h-2l-1 5-4 4-1 2h-3l1 4-2 5h-3l3-13 15-33 9-20 11-22 10-15z" fill="#F5BE49"/>
<path transform="translate(726,920)" d="m0 0 2 4 3 61 3 29v19l-2 1-3-9-2-20-2-11-1-12-1-20v-21l2-2v-9z" fill="#231A2A"/>
<path transform="translate(623,69)" d="m0 0 20 1 13 4 11 7 8 6v2l5 2-1 3-6-1v-2l-10-8-2-2-5-2-9-4h-20l-8 1h-4l-1 5-5 3-1 3h-2v-2h-4-2l-2 4h-2l-2 4-4-1v2l-6 3 2-5 16-16 9-5z" fill="#332340"/>
<path transform="translate(603,503)" d="m0 0h2v2h-2l-2 5-6 12-5 4-5 3-2 3h-2l-2 7-4 2v2l-7 1v2h-3v2l-5 4-2 4-8 6-4 1-5 5-5 3-8 6h-2l-1 3-4 2-1 3-8 3-14 10-12 8h-2v2h-2l1-3 14-10 13-9 14-10 13-10 17-14 14-12 25-25 9-11z" fill="#F5BD49"/>
<path transform="translate(416,839)" d="m0 0 2 1v2l-7 4h-4l-2 4-2 1-2 4-17 12-5 5-12 11-7 7-4 1-4-5 3-5 6-4h2l1-4 7-3 4-2 1-3 4-2 3-3 5-3 2-2h3l1-4 5-3 5-1 1-3 7-3z" fill="#261B2C"/>
<path transform="translate(1237,1093)" d="m0 0 1 2-4 5h-134l-11-2-1-2h147z" fill="#C1B065"/>
<path transform="translate(629,589)" d="m0 0 4 1-4 2 1 7 11 31 12 36 14 40 1 5v23l-2-4-3-24-3-9-11-31-5-16-7-21-7-18-4-11-2-5 1-2h2z" fill="#F5BD49"/>
<path transform="translate(963,74)" d="m0 0 8 1 5-1 8 4 8 5 1 5 3 6v3l-6-4-4-4v-2l-6-2-5-1-11-1-10-1h-7l-1-4 1-2 3-1z" fill="#1D0F29"/>
<path transform="translate(603,83)" d="m0 0 1 2 2 1h-2l1 3h-2v-2l-7 6-1 7-1 4-6 9-4 4h-2l-3 5-4 5-3 3-8 15-7 15h-2l3-9 3-6v-2h2l2-7 5-8 8-16 3-5 2 1 1-5 5-6-5 4 1-5 2-2h3v-2l5-1 5-6z" fill="#1E0F2A"/>
<path transform="translate(552,946)" d="m0 0h1l1 6-2 7-2 1-4 9-1 5-7 16h-2l-1 5-6 10-3 4h-2l-1 2-3 1v2h-2v2l-3 1-4 5-2-1 10-13 6-8 11-18 9-20 6-15z" fill="#F0B44A"/>
<path transform="translate(993,962)" d="m0 0 3 1 2 5 1 21v77l-1 31h62l-2-3 4 2 1 3-28 1h-21l-16-1-1-1v-107l-1-22z" fill="#B5B06E"/>
<path transform="translate(860,457)" d="m0 0 2 2-1 11-5 13-4 7h-2l-2 4-5 6-5 3-5 2-3-1 1-2 2 1 1-4 7-5 1-2h2l1-4 7-11 1-3 4-15z" fill="#21112B"/>
<path transform="translate(278,791)" d="m0 0 1 3-4 5-3 12-4 2-4 4-1 5h-2l-2 10-3 1-1 7h-2l-2 8-4 2-1 2-2 1v-6l13-26 14-23 5-5z" fill="#F5BE49"/>
<path transform="translate(618,204)" d="m0 0 6 2-1 24-2 14-3 13h-3l-1-3 3-6-1-5v-17l1-5-1-2v-14z" fill="#28122D"/>
<path transform="translate(610,314)" d="m0 0h1l1 37 1 1 3 23 3 19 1 6-2 2-5-15-4-18-1-8v-13z" fill="#1E1029"/>
<path transform="translate(685,409)" d="m0 0 4 2 5 9 4 5-1 3 8 8v5l-6-2-1-3-3-2-5-7-3 1-5-5-2-5 1-6z" fill="#2B1B2E"/>
<path transform="translate(640,1051)" d="m0 0 2 1 3 9 1 8-1 3 4 14-1 5-3-1-2-12v-4l-2 1v8l1 8-1 2h-3l-3-16v-11l4-1 1 3-1-14z" fill="#21102A"/>
<path transform="translate(1062,755)" d="m0 0 22 3 21 5 19 7 16 8 22 13 12 9 2 3-4-2-18-12-16-9-17-8-11-4-25-6-9-2-11-1h-4v-3z" fill="#94AF89"/>
<path transform="translate(904,409)" d="m0 0 5 2 1 1v8l-9 14-4 2-5 3-1 2-5 2-4 5-8 3-4-1 5-4 10-5 5-5 5-3h2l2-6 1-7 2-9z" fill="#23122C"/>
<path transform="translate(1379,1096)" d="m0 0h6l1 3-3 5-10 7h-9l-3-1-1-5 4-5 7-3z" fill="#453A48"/>
<path transform="translate(1152,918)" d="m0 0 5 1 13 7 1 1v7l-2 2-7-1-20-7-12-3-8-1h-27l-12 3-7 3-3-1 12-5 20-4 21 1 18 4 20 7 4 1 1-5-17-9z" fill="#BAB06A"/>
<path transform="translate(630,508)" d="m0 0 4 2 4 4 4 3v2l4 2v2h2l5 5 8 7v2l4 2 3 2v5l-10-6v-2l-5-2-3-1-7-8-9-9-3-4v-3h-2z" fill="#241A2B"/>
<path transform="translate(728,957)" d="m0 0 2 4 1 24 3 29v19l-2 1-3-9-1-9z" fill="#28122D"/>
<path transform="translate(673,271)" d="m0 0 2 1v4l-4 1-1 4-3 5-6 7-6 8-3 5-5-2v-3l4-2 1-5 2-1 3-7 1-2h2v-2h2l2-4h2l2-4z" fill="#2C1C2E"/>
<path transform="translate(972,85)" d="m0 0 5 1 6 4 5 5 8 9 12 20 11 21 9 20-1 4-8-16-1-5h-2l-5-10-9-17-5-10-3-4v-2h-2l-4-7-7-7-9-5z" fill="#F4BC49"/>
<path transform="translate(592,1102)" d="m0 0h26l18 2 3 1v2h-59v-1l7-2h5z" fill="#1C0E28"/>
<path transform="translate(788,966)" d="m0 0 2 3 3 17 6 45 1 9v14l-2-4-3-21-2-7-1-17-4-29z" fill="#F4BC48"/>
<path transform="translate(876,277)" d="m0 0 1 4-3 5-4 7-5 8-1 3-5 3-5-2 1-5h2v-2h3l1-5 2-4h2l-1-3h3l1-4 2-3z" fill="#281A2D"/>
<path transform="translate(619,836)" d="m0 0 2 1 2 32v13l-2-3-1 8-2-4-1-6v-12l-1-1v-15h2l-1-5z" fill="#231A2B"/>
<path transform="translate(375,867)" d="m0 0 4 2h-2l-1 3h-2v2l-4 4-3 5-7 7-4 1-4-5 3-5 6-4h2l1-4 7-3z" fill="#1D1029"/>
<path transform="translate(613,221)" d="m0 0h1l1 21-4 26-4 25-1 13-2 5h-1l1-15 3-26 2-12z" fill="#572143"/>
<path transform="translate(969,205)" d="m0 0 6 1 2 7 1 18v20h-1l-1-15h-2v-2h-2l1-7-3-12-3-1v-7z" fill="#21102A"/>
<path transform="translate(556,1061)" d="m0 0 4 2 3 6 8 13 2 7 1 4v7l-3-1-4-11-6-12-7-10v-4z" fill="#1D0F29"/>
<path transform="translate(732,470)" d="m0 0 4 4 6 12h3v2l3 1v2h2l1 2 6 2v3l8 4-1 5-2-1v-2l-3 1v-2l-10-4-4-7h-4l-8-14z" fill="#21112B"/>
<path transform="translate(977,222)" d="m0 0h1l3 24v17l-3 7-2-3-2-12v-10l-1-5 1-2-2-1 4-1 1 6z" fill="#301C30"/>
<path transform="translate(512,834)" d="m0 0 5 2v2l10 4v3h4v3l4 2 1 4 2 2-2 1 3 4-1 3h-3l-4-9-5-6-7-4-3-4v-2h-2z" fill="#23182A"/>
<path transform="translate(614,287)" d="m0 0h2l-1 17-1 11-1 37-2-1v-57z" fill="#622345"/>
<path transform="translate(544,944)" d="m0 0h1l-1 7-7 18-2 1v-6l-3 6-3 2-2 1-2 5-1-2 8-16 4-10h2l1-2v2h2z" fill="#261A2E"/>
<path transform="translate(156,586)" d="m0 0 6 1 4 5-5 1-6-1-5 2-5 3-1 4v5l-5-2 1-7 3-5 4-4z" fill="#1C0F28"/>
<path transform="translate(609,85)" d="m0 0h2l1 3-12 11-9 12-4 5 1-5 6-8v-8l7-8h2l1-1z" fill="#391D3C"/>
<path transform="translate(735,855)" d="m0 0h1l1 28-1 9-1 4-1 14-2 3v-35l2-20z" fill="#F5BD49"/>
<path transform="translate(616,785)" d="m0 0 5 1v16l-2 2-2 5-3 2v-25z" fill="#1C0E28"/>
<path transform="translate(278,791)" d="m0 0 1 3-4 5-3 12-4 2-5 5-4 5-4 8h-2l2-6 12-21 4-6 5-5z" fill="#F3BA47"/>
<path transform="translate(535,962)" d="m0 0 1 4-2 8h-3l-2 6-8 11-3 4-2-4 6-12 4-4 3-5h3l1-5z" fill="#24172C"/>
<path transform="translate(1276,743)" d="m0 0 1 4-2 14 1 18 6 25 4 12-1 3-6-15-5-18-1-7v-25z" fill="#C0B065"/>
<path transform="translate(565,1066)" d="m0 0 6 5h1l3 1 5 12 1 12-3 2-6-18-6-11z" fill="#24112C"/>
<path transform="translate(722,459)" d="m0 0h5l8 20 6 12 1 4-2-1v-2l-3-1-4-7-3-5-3-7-2-9h-2z" fill="#F2B849"/>
<path transform="translate(1111,766)" d="m0 0 6 1 25 12 20 12 12 9 2 3-4-2-18-12-16-9-17-8-6-2v-2z" fill="#B9B06B"/>
<path transform="translate(722,585)" d="m0 0 24 1v1l-34 1-29 3-13 2h-6l3-2 23-4 9-1z" fill="#AAB077"/>
<path transform="translate(727,285)" d="m0 0 5 1v2l4 2 2 4v11l-3 2-5-6v-3h2l-4-9z" fill="#24122B"/>
<path transform="translate(629,936)" d="m0 0h1l3 25v17l-1 5-3-2-2-19 1-6h1z" fill="#381D34"/>
<path transform="translate(918,1096)" d="m0 0 43 1 22 1v1l-45 1h-9l-11-2z" fill="#BFB066"/>
<path transform="translate(685,409)" d="m0 0 4 2 4 7 1 5-1 3-5-2-5-4-3-3 1-5z" fill="#2A122E"/>
<path transform="translate(620,977)" d="m0 0h2l5 40 1 7v11l-2-2-2-13-1-9-3-23z" fill="#F3BB47"/>
<path transform="translate(810,1094)" d="m0 0 1 4 12-1h37l12 1v1l-22 1h-16l-24-1z" fill="#BEB067"/>
<path transform="translate(860,457)" d="m0 0 2 2-1 11-4 11h-2l-3-4 1-3 4-15z" fill="#28142D"/>
<path transform="translate(645,82)" d="m0 0 6 1 4 1v2l4 1v2l4 2 2 2 2 1 1 3 2 1v2l3-1v2l4 4h-5l-11-11-11-7-9-3z" fill="#481F40"/>
<path transform="translate(648,72)" d="m0 0 5 1 10 5 10 8 2 1v2l5 2-1 3-6-1v-2l-10-8-2-2-5-2-4-2z" fill="#6D4C3C"/>
<path transform="translate(524,576)" d="m0 0h2l-1 4-4 2-1 3-8 3-14 10-12 8h-2v2h-2l1-3 14-10 13-9z" fill="#F4BC48"/>
<path transform="translate(615,207)" d="m0 0h1l1 12 1 3-1 4v19l1 3-1 4h-2v2h-2v-8l1-5v-28z" fill="#241B2B"/>
<path transform="translate(506,1025)" d="m0 0 3 1-1 7 1 4 4 1-15 1-6 2 1-2h2l2-4z" fill="#F4BC49"/>
<path transform="translate(803,410)" d="m0 0 4 1-1 12 1 7 2 8-1 1 2 2h-5l-2-2z" fill="#F6BE4A"/>
<path transform="translate(940,287)" d="m0 0 2 1v2l3 1 2 4v8l-4-1h-2l-4-1-2-5 3-1v2l2-1-2-8z" fill="#281A2D"/>
<path transform="translate(843,377)" d="m0 0h2l2 7-1 6h-2l-2 4-10 5 2-4 7-11z" fill="#F5BE49"/>
<path transform="translate(89,1095)" d="m0 0 10 1-3 2 1 15h6l-4 2h-6z" fill="#DFE7DD"/>
<path transform="translate(642,1037)" d="m0 0h1l6 41v3l-3-1-2-9 1-4-2-10-2-7-1-10z" fill="#4F2041"/>
<path transform="translate(1294,988)" d="m0 0v3l-11 11-2 10-4 25 4-1-3 3-3 1-1-3 6-34 3-5 8-7z" fill="#ADB075"/>
<path transform="translate(898,430)" d="m0 0 3 4-4 2-5 3-1 2-5 2-4 5-8 3-4-1 5-4 10-5 5-5 5-3h2z" fill="#23192B"/>
<path transform="translate(575,120)" d="m0 0 2 3-2 4-3 3-8 15-7 15h-2l3-9 3-6v-2h2l2-7 5-8 3-6z" fill="#1C0E28"/>
<path transform="translate(748,356)" d="m0 0h2l-2 7v14l4 11 4 6v2l-4-2-4-8-3-8-1-5v-8z" fill="#F4BC48"/>
<path transform="translate(796 1e3)" d="m0 0 2 2 4 5v10l-2 10h-1l-3-14z" fill="#2C1A2E"/>
<path transform="translate(977,72)" d="m0 0 5 1 9 6 8 7 10 13-1 2-4-3-3-5-6-7-11-9-7-4z" fill="#D5A648"/>
<path transform="translate(769,854)" d="m0 0h8l2 12v18h-1l-2-12-1-11-2-4z" fill="#F4BC48"/>
<path transform="translate(614,287)" d="m0 0h2l-1 17-1 11h-1l-1-8-1-1v-12z" fill="#5A2243"/>
<path transform="translate(611,71)" d="m0 0 4 1-10 5-14 14-1 3-6 3 2-5 16-16z" fill="#B38742"/>
<path transform="translate(212,1021)" d="m0 0h2l2 3 3 11 3 8 2 7h-2l-3-9h-2l-4-12z" fill="#321D31"/>
<path transform="translate(549,556)" d="m0 0 2 1-7 8-3 3-5 3-8 6-3-1 5-4 14-12z" fill="#F4BC48"/>
<path transform="translate(850,463)" d="m0 0 2 2-1 10h-3l1 3-5 7h-2v2h-2l-1 3 1-6 6-9 2-10h2z" fill="#1C0E28"/>
<path transform="translate(864,295)" d="m0 0 2 2-2 7-5 3-5-2 1-5h2v-2l6-2z" fill="#1E1029"/>
<path transform="translate(1379,1096)" d="m0 0h6l1 3-3 5-5 3-2-2v-6l-1-2z" fill="#9EB286"/>
<path transform="translate(716,875)" d="m0 0h1v34h-2l-1-17 1-14z" fill="#F4BC48"/>
<path transform="translate(225,909)" d="m0 0h2v12l-3 5-2 1v8l-2 3 1-15 1-4 2-9z" fill="#F7C04B"/>
<path transform="translate(523,838)" d="m0 0 5 2 8 8 3 2 3 7 1 5-5-5v-2l-3-1-2-5-2-1v-3h-4l-3-5z" fill="#1C0E28"/>
<path transform="translate(588,96)" d="m0 0 2 1-6 7-1 5-2-1-5 3-3 3 2-5 7-11 2-1 1 2z" fill="#56474A"/>
<path transform="translate(974,651)" d="m0 0 5 2 3 1 1 6-6 4h-3l1-4-1-3h2z" fill="#21122C"/>
<path transform="translate(875,286)" d="m0 0h2v2l-3 3-1 7-5 5-1 3h-2v2l-2-1 2-8 8-11z" fill="#F4BB49"/>
<path transform="translate(728,957)" d="m0 0 2 4 1 33h-2l-1-8z" fill="#22122D"/>
<path transform="translate(984,387)" d="m0 0h1l-1 10-3 9h-2l-1 3-2-4 2-4 2-8h2l1-5z" fill="#351D32"/>
<path transform="translate(201,602)" d="m0 0 4 1 8 5v2h2l2 4-3 2-4-4-4-2-1-2-3-2 1-2z" fill="#1C0E28"/>
<path transform="translate(1152,918)" d="m0 0 5 1 13 7 1 1v7l-2 2-7-1-8-3 3-1 7 1 4 1 1-5-17-9z" fill="#ACB076"/>
<path transform="translate(512,834)" d="m0 0 5 2v2l3 1v3l5 2 5 6-1 2-3-3-7-4-3-4v-2h-2z" fill="#1C0E28"/>
<path transform="translate(1062,755)" d="m0 0 22 3 9 2v1l-28-2h-4v-3z" fill="#B9B06B"/>
<path transform="translate(611,492)" d="m0 0 5 5 3 4-1 3-2-1v-2h-8l-2 1 1-5z" fill="#F4BC48"/>
<path transform="translate(429,642)" d="m0 0h3v2l-10 6h-2v2l-8 5-4 4h-3l1-3 19-13z" fill="#F4BC48"/>
<path transform="translate(614,797)" d="m0 0 7 1-1 6-2 4-4 3z" fill="#241B2B"/>
<path transform="translate(784,411)" d="m0 0h3l2 9v14l-3 3v-25z" fill="#F4BC48"/>
<path transform="translate(519,845)" d="m0 0 4 2 5 3 5 6 2 8 2 1-1 4-7-12-9-10z" fill="#441F3F"/>
<path transform="translate(582,1090)" d="m0 0 2 2v5h48v1l-49 1-1-1z" fill="#F6BE4A"/>
<path transform="translate(536,950)" d="m0 0 2 4-2 5h-2v6l-2 5-3 2-2 1-2 5-1-2 8-16z" fill="#471F3F"/>
<path transform="translate(525,980)" d="m0 0 3 2-8 10-2 3-2-4 5-10h3z" fill="#2B1B2E"/>
<path transform="translate(1365,1101)" d="m0 0h11l-1 5-1 1h-8l-2-2z" fill="#1C0E28"/>
<path transform="translate(210,603)" d="m0 0 6 4 8 7 9 12 3 5-1 2-10-14-5-5v-2l-4-2-6-5z" fill="#DAA845"/>
<path transform="translate(1325,705)" d="m0 0h6l1 1v6h-3l1-4-4-1-15 6-10 3 3-3z" fill="#AFB073"/>
<path transform="translate(616,950)" d="m0 0h3l1 10v16l-2-2z" fill="#F4BC48"/>
<path transform="translate(168,591)" d="m0 0 7 1v3h7l2 2-1 2-7-1-10-4z" fill="#1C0E28"/>
<path transform="translate(633,1052)" d="m0 0 5 4v10h-2l-2 4-1-7z" fill="#29122D"/>
<path transform="translate(527,967)" d="m0 0 1 3-6 11-9 13-2 1 2-6h2l2-5 6-10z" fill="#F3BB47"/>
<path transform="translate(380,851)" d="m0 0 2 1-23 23v-3l12-13 8-7z" fill="#80284C"/>
<path transform="translate(733,841)" d="m0 0 3 1-1 16-1 9h-1v-18l-2-1 1-5z" fill="#3E1936"/>
<path transform="translate(793,908)" d="m0 0 2 4 1 1v19l-2-1-1-6z" fill="#1C0E28"/>
<path transform="translate(1331,700)" d="m0 0 5 1 3 3-1 4-4 1-4-5z" fill="#1C0E28"/>
<path transform="translate(726,920)" d="m0 0 2 4v19l-2 3-1-7v-9z" fill="#1D1028"/>
<path transform="translate(613,221)" d="m0 0h1l1 21-1 4-3 1v-8z" fill="#642346"/>
<path transform="translate(1028,170)" d="m0 0h2l10 23-1 4-5-11-6-14z" fill="#F3BB47"/>
<path transform="translate(624,1013)" d="m0 0h2l2 11v11l-2-2-2-13-1-6z" fill="#F4BC48"/>
<path transform="translate(1152,787)" d="m0 0 5 1 11 7 8 7h-3l-14-10-7-4z" fill="#B4B06F"/>
<path transform="translate(786,1076)" d="m0 0h2l7 14 1 8-4-1 1-2-1-7-6-10z" fill="#F4BB48"/>
<path transform="translate(627,1017)" d="m0 0h1l4 18v7l-2 2-3-20z" fill="#451B39"/>
<path transform="translate(1278,793)" d="m0 0 2 4 6 19-1 3-6-15-1-3z" fill="#ADB074"/>
<path transform="translate(615,207)" d="m0 0h1l1 12 1 3-3 7h-1v-16z" fill="#411F38"/>
<path transform="translate(941,86)" d="m0 0 3 1-8 5v2l-7 3-7 7v-3l7-7 10-7z" fill="#F3BB47"/>
<path transform="translate(891,424)" d="m0 0 1 3-10 9-5 3h-2l1-3 9-6 5-5z" fill="#F4BC48"/>
<path transform="translate(397,853)" d="m0 0h5l-5 5-11 8v-3l3-1v-2z" fill="#5A2244"/>
<path transform="translate(307,736)" d="m0 0 1 2-1 2h-2l-2 4-3 3-2 3-2 2-1-6 8-6z" fill="#1C0E28"/>
<path transform="translate(613,360)" d="m0 0h1l3 20 1 7-2-1v-2h-2l-1-13z" fill="#5B2241"/>
<path transform="translate(732,295)" d="m0 0 3 4v4l3-1-1 4h-3l-4-5v-3h2z" fill="#241B2B"/>
<path transform="translate(788,966)" d="m0 0 2 3 2 10v6h-2l-2-9z" fill="#F3BB47"/>
<path transform="translate(840,360)" d="m0 0 2 2 1 3v10l-3-1-1-12z" fill="#1C0E28"/>
<path transform="translate(664,290)" d="m0 0 1 3-6 9-2 1 1-7 5-5z" fill="#F4BC48"/>
<path transform="translate(648,72)" d="m0 0 5 1 8 4v3l-2 1-7-4z" fill="#4F4A54"/>
<path transform="translate(518,847)" d="m0 0 4 1 9 10 2 4-1 3-6-10-4-3v-2l-4-2z" fill="#F3BB47"/>
<path transform="translate(668,742)" d="m0 0 2 1 2 10v11h-1l-3-16z" fill="#F4BC48"/>
<path transform="translate(366,880)" d="m0 0 3 1-9 9-4 1-2-3 6-1v-2z" fill="#5B2243"/>
<path transform="translate(252,807)" d="m0 0 1 4-5 5-4 3 2-5 3-6z" fill="#503B41"/>
<path transform="translate(797,703)" d="m0 0 4 1 3-1-1 4-3 2-6-1v-3h3z" fill="#20102C"/>
<path transform="translate(498,594)" d="m0 0 2 1-5 5-9 6h-2v2h-2l1-3 14-10z" fill="#F3BA47"/>
<path transform="translate(988,410)" d="m0 0v3l-5 5-5 3v-6h6v-2z" fill="#F5BD49"/>
<path transform="translate(416,842)" d="m0 0m-1 1v3l-12 7v-3l3-2v-3h6z" fill="#4C2041"/>
<path transform="translate(672,765)" d="m0 0h2l3 12v6l-2-3-3-8z" fill="#F4BB48"/>
<path transform="translate(451,627)" d="m0 0 3 1h-2v2h-2v2l-8 4-5 3 2-4z" fill="#F3BB47"/>
<path transform="translate(850,463)" d="m0 0 2 2-1 10h-4l1-10h2z" fill="#1D0F29"/>
<path transform="translate(616,386)" d="m0 0 2 1 2 13-2 2-3-9z" fill="#23182B"/>
<path transform="translate(606,291)" d="m0 0 1 2-1 13-2 5h-1l1-15z" fill="#572143"/>
<path transform="translate(799,1055)" d="m0 0 2 1v11l-4-1v-6z" fill="#F6BE4A"/>
<path transform="translate(544,944)" d="m0 0h1l-1 7-5 12-1-3 2-10 3-3z" fill="#301C3B"/>
<path transform="translate(769,854)" d="m0 0h8l1 9h-2l-3-6z" fill="#F5BD49"/>
<path transform="translate(686,566)" d="m0 0 9 3 1 4h-5l2-1-1-1h-5z" fill="#F5BE49"/>
<path transform="translate(1371,1097)" d="m0 0 6 1-2 4-9-1v-2z" fill="#4D4A55"/>
<path transform="translate(646,1065)" d="m0 0h1l2 16-3-1-2-9z" fill="#592243"/>
<path transform="translate(734,1023)" d="m0 0h1v18l-4-4v-5l2 1z" fill="#311C30"/>
<path transform="translate(1294,988)" d="m0 0v3l-11 11-2 5-1-4 3-5 8-7z" fill="#C7C087"/>
<path transform="translate(253,807)" d="m0 0 2 1-1 5-5 9-1-3-2-2 5-4z" fill="#1C0E28"/>
<path transform="translate(1010,126)" d="m0 0 5 5 4 11-1 3-8-16z" fill="#21122D"/>
<path transform="translate(1379,1096)" d="m0 0h6l1 3-3 5-3 1 1-6 1-2-4 1z" fill="#FDFDFC"/>
<path transform="translate(1268,776)" d="m0 0 2 1 1 3v7h-3l-1-9z" fill="#1C0E28"/>
<path transform="translate(847,468)" d="m0 0h1l-1 7-7 11-2-1 6-10z" fill="#301C3B"/>
<path transform="translate(907,427)" d="m0 0v3l-5 7-5 3 2-5 4-5z" fill="#F2B849"/>
<path transform="translate(981,396)" d="m0 0h1v7l-1 3h-2l-1 3-2-4 2-4h2z" fill="#2C182F"/>
<path transform="translate(720,837)" d="m0 0h2v12l-2 1-1-4z" fill="#F4BC48"/>
<path transform="translate(803,410)" d="m0 0 4 1-1 9h-3z" fill="#F3BB47"/>
<path transform="translate(653,299)" d="m0 0h2l-2 6-2 1-4-3v-2z" fill="#1F1429"/>
<path transform="translate(997,88)" d="m0 0 4 1 8 10-1 2-4-3-3-5z" fill="#E1A840"/>
<path transform="translate(798,1023)" d="m0 0h1v6h2l2 8-2-1-2 4z" fill="#3F1E37"/>
<path transform="translate(542,862)" d="m0 0 4 1 2 2 1 5-4 1z" fill="#201529"/>
<path transform="translate(416,839)" d="m0 0 2 1v2l-7 4-4-2z" fill="#241B2B"/>
<path transform="translate(631,594)" d="m0 0h3v2l3 1-1 3-5 1-1-5z" fill="#1C0E28"/>
<path transform="translate(603,503)" d="m0 0h2v2h-2l-2 5-2 4-5 1 2-4z" fill="#F3BA47"/>
<path transform="translate(543,939)" d="m0 0 3 4-1 3-2 2-2 4-1-4z" fill="#241B2B"/>
<path transform="translate(684,799)" d="m0 0h2l8 12-1 3v-2h-2l-7-11z" fill="#F4BB48"/>
<path transform="translate(759,500)" d="m0 0 4 1 2 1-1 5-2-1v-2l-3 1v-2l-2-1z" fill="#1C0E28"/>
<path transform="translate(901,409)" d="m0 0h2l-2 5-6 9h-2l2-5z" fill="#F3BB47"/>
<path transform="translate(518,276)" d="m0 0h2l1 5v8l-3-3z" fill="#241B2B"/>
<path transform="translate(597,102)" d="m0 0 2 1-6 9-4 4v-3l7-10z" fill="#F3BA47"/>
<path transform="translate(533,856)" d="m0 0 4 2 2 3-1 3h-3l-2-5z" fill="#241B2B"/>
<path transform="translate(520,840)" d="m0 0 7 2v3h4v4l-4-2-5-4-2-1z" fill="#271B2F"/>
<path transform="translate(377,870)" d="m0 0 3 1-5 4-5 5-1-2 3-4h2v-2z" fill="#512142"/>
<path transform="translate(242,855)" d="m0 0 2 4-2 6h-3l1-6z" fill="#F6BF4A"/>
<path transform="translate(531,974)" d="m0 0h2l-1 4-4 7h-2l2-5z" fill="#301C3B"/>
<path transform="translate(351,878)" d="m0 0h1v7l1 5-3-1-1-2v-6z" fill="#F5BD49"/>
<path transform="translate(900,668)" d="m0 0h1v7l-3 5-2-1 1-4z" fill="#1E0F2A"/>
<path transform="translate(429,642)" d="m0 0h3v2l-10 6-3-1z" fill="#F2B946"/>
<path transform="translate(735,287)" d="m0 0 2 1 4 8v6l-2-2-4-10z" fill="#F4BC48"/>
<path transform="translate(657,643)" d="m0 0h2l3 8-1 4-3-4z" fill="#25182E"/>
</svg>
